<svg xmlns="http://www.w3.org/2000/svg" width="341" height="340" fill="none" viewBox="0 0 341 340"><path fill="#000" stroke="#000" stroke-width="3" d="M151.085 70.534c27.444-26.686 70.762-28.196 100.044-3.383 13.697 11.605 23.436 28.86 25.697 46.831 24.61 7.956 44.753 28.299 51.034 53.597h.018l.27 1.16c1.427 6.14 1.851 12.489 1.305 18.772l-.355 4.144v.004c-2.715 30.835-23.772 57.04-53.01 65.779l-.008.003a79 79 0 0 1-5.959 1.505l.001.001a33 33 0 0 1-2.904.515 68 68 0 0 1-8.981.97l-1.397.056-.154-1.389c-.61-5.461-.304-10.844.514-15.697l.199-1.182 1.196-.066a50.5 50.5 0 0 0 9.078-1.353l.015-.004.015-.003c3.384-.746 6.69-1.867 9.86-3.281l.01-.005c20.386-8.891 35.361-29.601 33.92-55.224l-.066-.997c-1.582-20.894-15.438-40.001-34.932-47.745v-.001c-1.312-.52-2.844-.916-4.523-1.335-1.643-.411-3.425-.843-5.083-1.427-3.309-1.165-6.58-3.096-7.541-7.237l-.002-.006c-.659-2.901-.913-5.816-1.239-8.619-.33-2.839-.74-5.642-1.683-8.545v-.001c-13.79-42.365-70.819-51.86-98.141-16.487l-.001.002c-.811 1.046-1.56 2.28-2.381 3.622-.802 1.31-1.669 2.718-2.661 3.96-.996 1.245-2.178 2.403-3.655 3.171-1.505.783-3.239 1.118-5.244.83l-.007-.001c-.968-.143-2.099-.513-3.242-.951-1.161-.444-2.436-.998-3.708-1.553-2.604-1.135-5.157-2.254-7.144-2.734h-.001c-35.654-8.628-69.57 17.766-70.06 54.447-.013 1.119.132 2.406.313 3.859.178 1.416.389 2.981.462 4.508.145 3.012-.208 6.398-2.892 8.712l-.008.006c-.6.51-1.404.95-2.211 1.332-.828.392-1.767.772-2.694 1.136-1.924.755-3.735 1.422-4.921 2.084-18.187 10.199-24.337 33.355-13.597 51.233l.525.848v.002c11.517 18.147 37.42 22.008 53.986 8.382.857-.705 1.63-1.544 2.459-2.462.803-.889 1.678-1.874 2.65-2.708.987-.848 2.135-1.597 3.54-2.002 1.417-.408 2.992-.437 4.788.002h-.001c1.802.433 3.179 1.195 4.21 2.25 1.024 1.047 1.618 2.291 2.004 3.544.381 1.233.583 2.557.767 3.772.19 1.256.365 2.415.675 3.506 4.865 16.94 21.762 27.37 40.325 29.861 18.566 2.49 38.132-3.06 48.084-17.281l.003-.005c2.322-3.289 4.139-7.095 5.277-11.394l.212-.801.79-.247c4.913-1.539 10.262.713 12.51 5.422l.208.463.004.01q.212.515.47 1.034l.178.346.028.052.024.055a28 28 0 0 0 1.514 3.004l.43.732-.408.746c-.4.732-.969 1.947-1.519 3.136-.515 1.11-1.046 2.269-1.327 2.766l.001.001a46 46 0 0 1-1.952 3.175l.001.001c-1.765 2.682-3.71 5.114-5.799 7.387l-.004.004c-15.462 16.712-39.573 22.933-61.975 19.645-21.834-3.204-42.325-15.486-51.776-36.278-32.796 21.247-76.729 2.281-83.884-36.414v-.001c-.223-1.199-.28-2.528-.377-3.56-.104-1.114-.258-2.035-.61-2.821l-.19-.419.08-.452c.379-2.175.458-4.602.56-7.162.092-2.349.204-4.812.632-7.072l.091-.454c.417-1.941 1.464-4.763 2.603-7.455 1.148-2.716 2.443-5.424 3.407-7.17v-.002c5.119-9.247 14.126-17.967 23.982-22.171-2.362-47.501 38.985-85.62 86.296-78.48h.001c2.655.402 5.206 1.125 7.657 1.838 2.216.645 4.342 1.277 6.499 1.72 1.391-1.43 2.677-2.974 4.01-4.572 1.491-1.788 3.042-3.64 4.795-5.334Z"/><path fill="#000" d="M124.746 166.245c-13.459 2.31-10.915 24.729 4.408 22.508 14.377-2.073 12.335-25.381-4.408-22.508M173.333 166.245c-13.459 2.31-10.915 24.729 4.408 22.508 14.376-2.073 12.335-25.381-4.408-22.508M222.333 166.245c-13.459 2.31-10.915 24.729 4.408 22.508 14.376-2.073 12.335-25.381-4.408-22.508"/><path fill="#000" stroke="#000" stroke-width="2" d="M257.056 229.811c2.054-4.975 7.489-7.322 12.157-5.003l-.001.001c4.586 2.26 6.519 8.114 4.483 13.049l-.014.033-.027.07a6 6 0 0 1-.1.245c-.67 1.794-3.25 9.062-3.013 16.706l.001.006c.152 5.997 2.02 12.096 7.691 16.082l.005.003c3.213 2.283 4.747 6.454 3.91 10.475-.838 4.05-3.891 7.179-7.777 7.716l-.001-.001c-.788.136-6.491.888-14.482.528-4.707-.212-10.224-.822-15.989-2.167v.001c-16.412-3.788-29.164-12.199-37.432-24.662l-.546-.828c-2.689-4.15-4.848-8.719-6.506-13.705a1 1 0 0 1-.04-.093l-.036-.129c-1.558-5.04.771-10.645 5.485-12.572l.02-.008.02-.007c.082-.029.162-.064.292-.118.119-.048.269-.109.436-.162l.01-.002.009-.003c4.608-1.355 9.36 1.3 10.972 6.148l.002.007q.177.545.398 1.094l.152.367.015.035.012.034c.279.816.588 1.614.927 2.382l.348.759.003.007c5.249 11.187 14.945 18.56 28.988 21.946 2.463.586 4.886.995 7.196 1.291-1.329-3.957-2.013-8.079-2.222-12.117v-.001c-.307-5.443.21-10.779 1.169-15.572a51 51 0 0 1 1.555-6.324 52 52 0 0 1 1.93-5.511Zm-57.502 18.775.007.009-.004-.005-.008-.011Z"/></svg>