<svg xmlns="http://www.w3.org/2000/svg" width="341" height="340" fill="none" viewBox="0 0 341 340"><mask id="path-1-outside-1_895_168" width="291" height="274" x="20.123" y="37.999" fill="#000" maskUnits="userSpaceOnUse"><path fill="#fff" d="M20.123 37.999h291v274h-291Z"/><path d="M264.104 250.335c1.944-.068 3.697.466 5.132 1.683 2 1.698 2.909 4.341 3.21 7.048l.085.84c.419 4.429.65 12.202.659 19.858.009 8.147-.232 16.432-.815 20.591-.694 4.949-4.293 7.598-7.98 7.816-3.556.21-7.451-1.93-8.04-6.374l-.034-.265.027-.266c.69-6.661.264-14.203-.138-21.941-.397-7.638-.771-15.48.145-22.381.167-1.267.787-2.563 1.534-3.584.729-.994 1.853-2.099 3.301-2.531l2.914-.869ZM27.808 101.548c-17.662-39.073 32.698-65.754 55.33-33.802l.53.766c2.307 3.424 4.38 7.38 6.361 11.28 1.755 3.452 3.433 6.848 5.19 9.955l.758 1.313 2.444 4.141c5.899 9.981 13.121 22.069 20.775 33.741 8.765 13.368 18.01 26.052 26.402 34.378 6.396 6.345 14.57 9.681 24.019 11.366 9.486 1.692 20.087 1.692 31.229 1.487 21.62-.399 45.401-1.635 64.646 8.517l.035-.016 1.044.579c22.02 12.208 32.553 29.326 37.353 48.85 4.759 19.358 3.888 41.138 3.239 62.67l-.003.097-.01.098c-.472 4.047-3.308 6.859-6.597 7.628-3.374.788-7.1-.614-8.964-4.512l-.189-.395-.029-.437c-.486-7.608-.372-15.136-.239-22.467.133-7.361.284-14.511-.107-21.514-.781-13.953-3.706-27.112-13.107-39.445-18.448-24.206-43.793-24.878-70.329-24.082-26.15.783-53.861 3.12-73.94-17.522-3.91-4.023-8.346-10.223-11.663-14.538-20.413-26.556-37.226-55.568-53.493-84.597-9.81-10.803-28.48-3.708-28.55 10.892-.007 1.262.47 3.208 1.43 5.717.934 2.447 2.238 5.204 3.682 8.001 2.538 4.918 5.402 9.758 7.347 13.148l.773 1.36 1.535 2.718c15.434 27.178 33.261 54.17 53.682 77.716l2.051 2.343v.001c2.465 2.791 5.516 5.764 8.804 8.961 3.264 3.172 6.742 6.548 9.948 10.059 6.339 6.941 12.027 14.833 12.768 23.378.82 9.468.507 19.497.146 29.405-.364 9.961-.776 19.794-.204 29.094l.014.246-.038.242c-.716 4.584-4.605 6.729-8.229 6.443-3.663-.288-7.215-3.004-7.789-7.83v-.001c-1.045-8.798-.619-18.558-.154-28.137.47-9.664.977-19.145.193-27.708-.324-3.514-1.695-6.485-3.954-9.304-3.299-4.115-7.499-8.234-11.912-12.48-4.371-4.204-8.953-8.537-12.821-12.95-23.774-27.125-54.548-71.984-69.407-104.853M195.29 42.336c62.42-6.066 94.645 71.434 46.291 110.523-34.867 28.188-88.121 10.576-99.302-32.59-9.344-36.06 15.331-74.273 53.011-77.933m36.978 97.207c34.917-29.543 10.236-86.356-35.833-81.154-20.637 2.333-38.324 20.908-39.98 41.6-3.279 40.916 44.388 66.131 75.813 39.554"/></mask><path fill="#000" d="M264.104 250.335c1.944-.068 3.697.466 5.132 1.683 2 1.698 2.909 4.341 3.21 7.048l.085.84c.419 4.429.65 12.202.659 19.858.009 8.147-.232 16.432-.815 20.591-.694 4.949-4.293 7.598-7.98 7.816-3.556.21-7.451-1.93-8.04-6.374l-.034-.265.027-.266c.69-6.661.264-14.203-.138-21.941-.397-7.638-.771-15.48.145-22.381.167-1.267.787-2.563 1.534-3.584.729-.994 1.853-2.099 3.301-2.531l2.914-.869ZM27.808 101.548c-17.662-39.073 32.698-65.754 55.33-33.802l.53.766c2.307 3.424 4.38 7.38 6.361 11.28 1.755 3.452 3.433 6.848 5.19 9.955l.758 1.313 2.444 4.141c5.899 9.981 13.121 22.069 20.775 33.741 8.765 13.368 18.01 26.052 26.402 34.378 6.396 6.345 14.57 9.681 24.019 11.366 9.486 1.692 20.087 1.692 31.229 1.487 21.62-.399 45.401-1.635 64.646 8.517l.035-.016 1.044.579c22.02 12.208 32.553 29.326 37.353 48.85 4.759 19.358 3.888 41.138 3.239 62.67l-.003.097-.01.098c-.472 4.047-3.308 6.859-6.597 7.628-3.374.788-7.1-.614-8.964-4.512l-.189-.395-.029-.437c-.486-7.608-.372-15.136-.239-22.467.133-7.361.284-14.511-.107-21.514-.781-13.953-3.706-27.112-13.107-39.445-18.448-24.206-43.793-24.878-70.329-24.082-26.15.783-53.861 3.12-73.94-17.522-3.91-4.023-8.346-10.223-11.663-14.538-20.413-26.556-37.226-55.568-53.493-84.597-9.81-10.803-28.48-3.708-28.55 10.892-.007 1.262.47 3.208 1.43 5.717.934 2.447 2.238 5.204 3.682 8.001 2.538 4.918 5.402 9.758 7.347 13.148l.773 1.36 1.535 2.718c15.434 27.178 33.261 54.17 53.682 77.716l2.051 2.343v.001c2.465 2.791 5.516 5.764 8.804 8.961 3.264 3.172 6.742 6.548 9.948 10.059 6.339 6.941 12.027 14.833 12.768 23.378.82 9.468.507 19.497.146 29.405-.364 9.961-.776 19.794-.204 29.094l.014.246-.038.242c-.716 4.584-4.605 6.729-8.229 6.443-3.663-.288-7.215-3.004-7.789-7.83v-.001c-1.045-8.798-.619-18.558-.154-28.137.47-9.664.977-19.145.193-27.708-.324-3.514-1.695-6.485-3.954-9.304-3.299-4.115-7.499-8.234-11.912-12.48-4.371-4.204-8.953-8.537-12.821-12.95-23.774-27.125-54.548-71.984-69.407-104.853M195.29 42.336c62.42-6.066 94.645 71.434 46.291 110.523-34.867 28.188-88.121 10.576-99.302-32.59-9.344-36.06 15.331-74.273 53.011-77.933m36.978 97.207c34.917-29.543 10.236-86.356-35.833-81.154-20.637 2.333-38.324 20.908-39.98 41.6-3.279 40.916 44.388 66.131 75.813 39.554"/><path fill="#000" d="M264.104 250.335h-3v3.106l3.104-.108Zm5.132 1.683-1.942 2.288Zm3.21 7.048 2.984-.305-.001-.013-.002-.013Zm.085.84 2.987-.282-.001-.012-.001-.011Zm.659 19.858-3 .004Zm-.815 20.591 2.971.417Zm-7.98 7.816-.177-2.995Zm-8.04-6.374-2.976.384.002.01Zm-.034-.265-2.985-.307-.035.346.044.345Zm.027-.266-2.984-.309v.002Zm-.138-21.941 2.996-.155v-.001Zm.145-22.381 2.974.395v-.002Zm1.534-3.584-2.42-1.773-.001.001Zm3.301-2.531-.858-2.875h-.001Zm2.914-.869h3v-4.026l-3.858 1.151ZM27.808 101.548l-2.734 1.235Zm55.33-33.802 2.468-1.706-.01-.014-.01-.014Zm.53.766-2.469 1.706.155.223.192.192Zm0 0 2.488-1.676-.162-.24-.204-.205Zm6.361 11.28 2.675-1.36Zm5.19 9.955-2.611 1.477.006.011.006.011Zm.758 1.313-2.599 1.5.008.013.007.013Zm2.444 4.141-2.583 1.525v.001Zm20.775 33.741-2.509 1.645Zm26.402 34.378-2.113 2.13Zm24.019 11.366-.526 2.954Zm31.229 1.487.055 2.999Zm64.646 8.517-1.399 2.654 1.343.709 1.367-.664Zm.035-.016 1.455-2.624-1.364-.756-1.402.681Zm1.044.579-1.456 2.623.001.001Zm37.353 48.85-2.913.717Zm3.239 62.67 2.999.091Zm-.003.097 2.982.328.013-.118.004-.119Zm-.01.098 2.979.347.002-.01.001-.009Zm-6.597 7.628.683 2.921Zm-8.964-4.512 2.707-1.294-.003-.005Zm-.189-.395-2.994.194.037.581.252.524Zm-.029-.437-2.994.191.001.003Zm-.239-22.467 3 .055v-.001Zm-.107-21.514 2.995-.167Zm-13.107-39.445-2.386 1.818v.001Zm-70.329-24.082.09 2.999Zm-73.94-17.522h-3v1.219l.849.873Zm0 0h3v-1.218l-.849-.874Zm-11.663-14.538-2.379 1.829ZM68.493 75.087l2.618-1.467-.167-.297-.23-.253Zm-28.55 10.892 3 .016v-.001Zm1.43 5.717-2.803 1.071Zm3.682 8.001-2.666 1.376Zm7.347 13.148 2.608-1.483-.006-.01Zm.773 1.36 2.612-1.476-.004-.007Zm1.535 2.718-2.612 1.475.004.006Zm53.682 77.716-2.267 1.965.009.01Zm2.051 2.343h3v-1.127l-.743-.848Zm0 .001h-3v1.136l.751.85Zm8.804 8.961-2.091 2.151Zm9.948 10.059-2.216 2.023Zm12.768 23.378 2.989-.259v-.001Zm.146 29.405-2.998-.109Zm-.204 29.094 2.994-.179v-.005Zm.014.246 2.964.466.05-.321-.019-.323Zm-.038.242-2.964-.466v.003Zm-8.229 6.443.235-2.99Zm-7.789-7.83 2.98-.354-.123-1.032-.735-.735Zm0-.001-2.98.354.123 1.033.735.735Zm-.154-28.137-2.996-.146Zm.193-27.708 2.987-.274v-.001Zm-3.954-9.304 2.342-1.876-.001-.001Zm-11.912-12.48 2.08-2.162Zm-12.821-12.95 2.256-1.977Zm98.076-164.065.29 2.986Zm46.291 110.523-1.886-2.333Zm-99.302-32.59 2.904-.752Zm89.989 19.274 1.937 2.29h.001Zm-35.833-81.154-.337-2.98Zm-39.98 41.6 2.991.239v-.001Zm107.648 150.346.104 2.998c1.299-.045 2.295.301 3.086.973l1.942-2.288 1.941-2.287c-2.077-1.762-4.588-2.484-7.177-2.394Zm5.132 1.683-1.942 2.288c1.163.986 1.908 2.733 2.17 5.092l2.982-.332 2.981-.331c-.34-3.056-1.412-6.596-4.25-9.004Zm3.21 7.048-2.985.306.086.839 2.984-.305 2.985-.305-.086-.84Zm.085.84-2.986.282c.405 4.285.636 11.944.645 19.58l3-.004 3-.003c-.009-7.677-.24-15.564-.672-20.137Zm.659 19.858-3 .004c.009 8.166-.236 16.25-.786 20.171l2.971.416 2.971.417c.616-4.398.853-12.885.844-21.011Zm-.815 20.591-2.971-.417c-.488 3.481-2.872 5.101-5.186 5.238l.177 2.995.177 2.995c5.059-.299 9.874-3.978 10.774-10.394Zm-7.98 7.816-.177-2.995c-2.384.141-4.555-1.254-4.889-3.774l-2.974.395-2.974.394c.844 6.368 6.463 9.254 11.191 8.975Zm-8.04-6.374 2.975-.385-.034-.264-2.975.384-2.976.384.034.265Zm-.034-.265 2.984.307.027-.265-2.984-.308-2.984-.307-.028.266Zm.027-.266 2.984.309c.719-6.943.272-14.743-.126-22.405l-2.996.155-2.996.155c.406 7.815.81 15.097.15 21.477Zm-.138-21.941 2.996-.156c-.4-7.694-.75-15.252.123-21.83l-2.974-.395-2.974-.394c-.958 7.223-.561 15.349-.167 22.931Zm.145-22.381 2.974.393c.084-.638.442-1.469.981-2.205l-2.421-1.772-2.421-1.772c-.956 1.306-1.837 3.067-2.088 4.964Zm1.534-3.584 2.42 1.774c.545-.745 1.183-1.264 1.739-1.431l-.858-2.874-.859-2.875c-2.338.699-3.95 2.388-4.862 3.633Zm3.301-2.531.857 2.875 2.914-.869-.857-2.875-.858-2.875-2.914.869Zm2.914-.869h-3v.375h6v-.375ZM27.808 101.548l2.733-1.236C14.388 64.575 60.144 40.472 80.69 69.48l2.448-1.734 2.448-1.734c-24.717-34.896-79.682-5.636-60.512 36.771Zm55.33-33.802-2.468 1.706.53.766 2.467-1.706 2.468-1.706-.53-.766Zm.53.766-2.122 2.12v.002Zl2.121-2.122Zm0 0L81.18 70.19c2.193 3.253 4.192 7.06 6.175 10.962l2.674-1.36 2.675-1.358c-1.98-3.896-4.126-8.004-6.548-11.597Zm6.361 11.28-2.674 1.359c1.73 3.406 3.453 6.89 5.253 10.073l2.611-1.477 2.611-1.477c-1.714-3.031-3.349-6.34-5.126-9.837Zm5.19 9.955-2.599 1.5.758 1.313 2.599-1.5 2.598-1.499-.758-1.313Zm.758 1.313-2.584 1.525 2.445 4.141 2.583-1.525 2.584-1.525-2.445-4.14Zm2.444 4.141-2.583 1.526c5.902 9.986 13.154 22.126 20.849 33.86l2.509-1.645 2.508-1.645c-7.612-11.609-14.804-23.646-20.7-33.622Zm20.775 33.741-2.509 1.645c8.785 13.398 18.171 26.304 26.798 34.863l2.113-2.13 2.113-2.13c-8.157-8.092-17.261-20.555-26.007-33.893Zm26.402 34.378-2.113 2.13c6.967 6.911 15.781 10.438 25.606 12.19l.526-2.954.527-2.953c-9.075-1.618-16.608-4.764-22.433-10.543Zm24.019 11.366-.526 2.954c9.811 1.749 20.687 1.737 31.81 1.532l-.055-2.999-.055-3c-11.161.205-21.487.193-30.647-1.44Zm31.229 1.487.055 2.999c21.92-.404 44.783-1.539 63.192 8.172l1.399-2.654 1.4-2.653c-20.081-10.594-44.781-9.257-66.101-8.864Zm64.646 8.517 1.311 2.699.034-.017-1.31-2.698-1.311-2.699-.034.017Zm.035-.016-1.456 2.623 1.044.579 1.456-2.623 1.455-2.624-1.044-.579Zm1.044.579-1.455 2.624c21.198 11.752 31.267 28.12 35.895 46.943l2.913-.717 2.913-.716c-4.973-20.227-15.968-38.093-38.812-50.758Zm37.353 48.85-2.913.717c4.641 18.877 3.807 40.201 3.154 61.863l2.998.09 2.999.091c.645-21.403 1.553-43.638-3.325-63.477Zm3.239 62.67-2.998-.091-.003.097 2.998.091 2.999.091.003-.097Zm-.003.097-2.982-.328-.01.098 2.982.328 2.982.328.01-.098Zm-.01.098-2.98-.347c-.322 2.761-2.213 4.566-4.3 5.053l.683 2.922.683 2.921c4.491-1.05 8.272-4.868 8.893-10.202Zm-6.597 7.628-.683-2.922c-2.061.482-4.344-.31-5.574-2.884l-2.707 1.294-2.707 1.294c2.497 5.222 7.666 7.234 12.354 6.139Zm-8.964-4.512 2.704-1.299-.189-.394-2.704 1.298-2.705 1.299.19.394Zm-.189-.395 2.993-.193-.028-.438-2.994.194-2.993.194.028.437Zm-.029-.437 2.994-.192c-.478-7.468-.367-14.879-.233-22.22l-3-.055-2.999-.055c-.134 7.322-.251 14.966.244 22.713Zm-.239-22.467 3 .054c.132-7.331.287-14.6-.112-21.735l-2.995.167-2.996.168c.384 6.869.237 13.9.104 21.292Zm-.107-21.514 2.995-.167c-.799-14.288-3.819-28.113-13.716-41.097l-2.386 1.819-2.386 1.819c8.905 11.681 11.736 24.176 12.497 37.794Zm-13.107-39.445 2.386-1.818c-19.457-25.53-46.318-26.057-72.805-25.263l.09 2.999.09 2.999c26.584-.798 50.414.019 67.853 22.901Zm-70.329-24.082-.09-2.999c-26.608.797-52.728 2.889-71.7-16.614l-2.15 2.091-2.151 2.092c21.187 21.78 50.488 19.198 76.181 18.429Zm-73.94-17.522h3Zh-3Zm0 0 2.151-2.092c-3.749-3.856-8-9.805-11.436-14.274l-2.378 1.828-2.379 1.829c3.198 4.159 7.82 10.612 11.89 14.8Zm-11.663-14.538 2.378-1.828c-20.268-26.368-36.99-55.211-53.254-84.236l-2.617 1.467-2.617 1.466c16.27 29.035 33.174 58.216 53.731 84.96ZM68.493 75.087l2.221-2.017c-11.633-12.81-33.687-4.466-33.771 12.895l3 .014 3 .015c.057-11.84 15.342-17.686 23.33-8.89Zm-28.55 10.892-3-.015c-.01 1.848.644 4.232 1.627 6.803l2.802-1.07 2.803-1.072c-.936-2.447-1.236-3.956-1.232-4.63Zm1.43 5.717-2.803 1.071c.992 2.595 2.351 5.462 3.82 8.306l2.665-1.376 2.666-1.376c-1.42-2.75-2.668-5.397-3.546-7.696Zm3.682 8.001-2.666 1.376c2.578 4.995 5.493 9.921 7.41 13.264l2.603-1.492 2.602-1.493c-1.972-3.437-4.785-8.19-7.283-13.031Zm7.347 13.148-2.608 1.482.773 1.361 2.608-1.483 2.608-1.483-.773-1.36Zm.773 1.36-2.612 1.475 1.535 2.718 2.612-1.475 2.612-1.476-1.535-2.718Zm1.535 2.718-2.608 1.481c15.497 27.289 33.434 54.46 54.023 78.2l2.267-1.965 2.266-1.966c-20.251-23.35-37.968-50.165-53.34-77.232Zm53.682 77.716-2.258 1.975 2.051 2.344 2.258-1.976 2.257-1.975-2.05-2.344Zm2.051 2.343h-3v.001h6v-.001Zm0 .001-2.249 1.986c2.556 2.893 5.695 5.949 8.962 9.126l2.091-2.151 2.092-2.151c-3.309-3.218-6.273-6.107-8.648-8.796Zm8.804 8.961-2.091 2.151c3.276 3.185 6.688 6.497 9.823 9.931l2.216-2.023 2.215-2.023c-3.277-3.589-6.82-7.027-10.072-10.187Zm9.948 10.059-2.216 2.023c6.296 6.893 11.347 14.14 11.995 21.614l2.989-.259 2.989-.26c-.834-9.616-7.159-18.153-13.542-25.141Zm12.768 23.378-2.989.259c.802 9.257.499 19.106.137 29.037l2.998.109 2.998.109c.36-9.886.683-20.093-.155-29.773Zm.146 29.405-2.998-.109c-.362 9.912-.784 19.909-.201 29.387l2.995-.184 2.994-.184c-.561-9.122-.158-18.792.208-28.801Zm-.204 29.094-2.995.178.014.246 2.995-.178 2.995-.178-.015-.247Zm.014.246-2.963-.466-.039.242 2.964.466 2.964.466.038-.242Zm-.038.242-2.964-.463c-.431 2.762-2.677 4.101-5.03 3.916l-.235 2.99-.236 2.991c4.897.386 10.429-2.565 11.429-8.971Zm-8.229 6.443.235-2.99c-2.321-.183-4.65-1.872-5.044-5.194l-2.98.354-2.979.354c.753 6.33 5.529 10.073 10.532 10.467Zm-7.789-7.83 2.122-2.121-.001-.001Zl-2.122 2.122.001.001Zm0-.001 2.979-.354c-1.011-8.506-.603-18.014-.136-27.638l-2.997-.145-2.996-.146c-.463 9.535-.909 19.548.17 28.637Zm-.154-28.137 2.997.145c.466-9.596.991-19.31.183-28.127l-2.987.274-2.988.273c.762 8.31.271 17.558-.201 27.289Zm.193-27.708 2.987-.275c-.387-4.202-2.043-7.714-4.599-10.905l-2.342 1.876-2.341 1.876c1.961 2.447 3.047 4.876 3.307 7.703Zm-3.954-9.304 2.341-1.877c-3.438-4.288-7.775-8.533-12.173-12.765l-2.08 2.162-2.08 2.162c4.428 4.26 8.491 8.253 11.652 12.194Zm-11.912-12.48 2.08-2.162c-4.411-4.242-8.882-8.471-12.645-12.765l-2.256 1.977-2.256 1.978c3.972 4.532 8.666 8.968 12.998 13.135Zm-12.821-12.95 2.256-1.977c-23.63-26.96-54.22-71.573-68.93-104.112l-2.733 1.236-2.734 1.235c15.009 33.2 45.965 78.304 69.885 105.596Zm98.076-164.065.29 2.986c59.559-5.788 90.077 68.049 44.115 105.204l1.886 2.333 1.886 2.333c50.747-41.023 16.815-122.186-48.467-115.842Zm46.291 110.523-1.886-2.333c-33.176 26.82-83.879 10.039-94.512-31.009l-2.904.752-2.905.753c11.731 45.283 67.534 63.726 104.093 34.17Zm-99.302-32.59 2.904-.752c-8.914-34.4 14.678-70.725 50.397-74.195l-.29-2.986-.29-2.986c-39.64 3.85-65.399 43.952-55.626 81.672Zm89.989 19.274 1.938 2.29c37.243-31.512 10.826-91.95-38.108-86.425l.337 2.981.336 2.981c43.205-4.879 66.149 48.308 33.559 75.883Zm-35.833-81.154-.337-2.98c-22.089 2.496-40.865 22.243-42.633 44.34l2.99.24 2.991.238c1.543-19.285 18.141-36.688 37.326-38.857Zm-39.98 41.6-2.99-.24c-3.485 43.485 47.209 70.443 80.74 42.084l-1.937-2.29-1.937-2.291c-29.32 24.796-73.958 1.324-70.885-37.024Z" mask="url(#path-1-outside-1_895_168)"/></svg>