<svg xmlns="http://www.w3.org/2000/svg" width="112" height="88" fill="none"><g fill="#fff" clip-path="url(#a)"><path d="M97.095 41.208c1.676-5.011.83-9.775-1.655-14.299-2.177-3.967-5.452-6.827-9.497-8.797-.993-.483-1.506-1.089-1.655-2.237-.216-1.67-.59-3.334-1.342-4.875C79.413 3.762 73.508.153 65.564.077 58.457.01 52.711 4.493 52.736 12.743c.02 6.643-.025 13.282.038 19.925.024 2.603.209 5.22 1.31 7.645 3.028 6.671 11.445 10.45 18.56 8.355 1.484-.435 2.212-1.607 2.073-3.33-.108-1.35-1.108-2.363-2.561-2.488-.596-.052-1.216.021-1.812.108-7.567 1.09-11.713-4.117-11.372-9.938.188-3.202.035-6.424.035-9.636h.056c0-3.688-.014-7.38.003-11.069.014-2.972 1.659-4.854 4.585-5.418 5.261-1.013 9.393.839 12.574 4.973 3.871 5.031 2.23 11.827-3.463 14.597-1.704.829-2.46 2.572-1.773 4.079.801 1.76 2.669 2.467 4.453 1.628 3.33-1.566 5.954-3.87 7.42-7.328.248-.585.454-1.166 1.297-.602 3.627 2.425 6.466 5.442 7.222 9.91.533 3.16.147 6.142-2.306 8.55-1.22 1.197-1.495 2.572-.878 3.779.676 1.322 2.007 1.935 3.79 1.514.955-.227 1.331.125 1.708.884 2.324 4.69.662 11.086-3.596 14.103-2.822 2.001-5.993 2.63-9.351 2.75-.882.03-1.181-.418-1.404-1.191-1.418-4.924-6.146-8.463-11.278-8.425l-14.177-.076a5.72 5.72 0 0 0-4.415-2.074 5.73 5.73 0 0 0-5.734 5.728 5.72 5.72 0 0 0 2.965 5.014c0 3.292.014 6.99.045 8.397.056 2.46-1.07 4.273-2.84 5.87-3.804 3.435-11.957 3.497-16.17-1.423-3.048-3.56-3.414-9.566.105-12.646.617-.539 1.129-1.204 1.669-1.823 1.216-1.392 1.181-2.979-.077-4.169-1.236-1.169-2.923-1.12-4.167.202-1.041 1.107-2.083 2.224-2.979 3.445-1.344 1.837-2.975 2.641-5.327 2.45-3.264-.268-6-1.43-8.013-3.995-3.028-3.852-3.348-8.045-1.338-12.478.408-.905.801-.947 1.547-.37 1.902 1.47 4.1 2.283 6.477 2.513 5.289.512 10.595.146 15.89.226.994.014 1.997-.094 2.98-.254 6.714-1.11 12.689-7.419 13.055-13.922.47-8.407.327-16.825.024-25.232-.209-5.756-3.979-9.956-9.585-11.115-9.947-2.053-21.141 4.138-22.336 15.806-.094.936-.474 1.513-1.324 1.886-2.087.918-3.881 2.265-5.613 3.744C4.478 25.452.72 34.224 3.7 41.065c.429.985.244 1.642-.32 2.478C-.547 49.347-1.13 55.489 2 61.78c2.874 5.773 7.878 8.658 14.132 9.35 1.891.209 2.553.964 2.902 2.694.784 3.89 2.606 7.248 5.735 9.802 4.909 4.005 10.449 5.195 16.622 3.828 6.669-1.476 11.648-7.482 11.683-14.278.007-1.524-.01-5.56-.025-9.012a5.7 5.7 0 0 0 1.488-1.803h13.609a4.6 4.6 0 0 1 2.47.707c2.045 1.26 2.937 3.204 3.355 5.47 1.077 5.832-3.038 12.151-9.194 12.74-1.795.17-3.55-.08-5.324-.185s-2.913.86-3.258 2.537c-.31 1.517.509 3.131 1.969 3.716.637.254 1.33.46 2.014.505 4.731.313 9.142-.602 13.096-3.383 3.725-2.62 5.84-6.243 6.75-10.603.257-1.242.623-1.941 2.03-1.924.983.01 1.976-.264 2.958-.449 4.098-.769 7.853-2.317 10.881-5.24 6.279-6.066 6.944-15.99 1.606-23.033-.474-.626-.693-1.187-.414-2.018ZM9.052 33.92c.655-4.19 2.899-7.259 6.637-9.267.704-.379 1.073-.417 1.463.453 1.607 3.567 4.255 6.075 7.955 7.43 1.777.65 3.355.142 4.038-1.288.731-1.531.254-2.93-1.38-3.978-.659-.42-1.376-.748-2.017-1.19-4.429-3.041-5.404-9.475-2.046-14.117 2.98-4.12 7.08-5.888 12.143-5.227 3.787.494 5.525 2.554 5.585 6.577.052 3.601.01 7.206.01 10.808h.038c0 3.428.039 6.859-.01 10.286-.063 4.486-2.29 7.61-6.247 9.58-.662.33-1.376.585-2.122.592-5.25.045-10.504.146-15.755.073-4.662-.066-9.278-4.413-8.292-10.732m90.273-18.16c1.735-1.764 3.422-3.574 5.146-5.345.554-.567.826-1.208.763-1.963.039-1.158-.484-1.945-1.491-2.404-1.261-.57-2.414-.265-3.355.654-1.739 1.695-3.432 3.438-5.118 5.188-1.415 1.469-1.46 3.01-.178 4.214 1.3 1.225 2.784 1.124 4.233-.351Zm9.111 4.329c-1.777.563-3.523 1.235-5.272 1.886-1.717.64-2.48 1.959-2.014 3.403.53 1.628 1.945 2.349 3.767 1.76 1.857-.598 3.676-1.318 5.498-2.021 1.097-.425 1.588-1.288 1.588-2.446 0-1.966-1.637-3.191-3.567-2.579Z"/></g><defs><clipPath id="a"><path fill="#fff" d="M0 0h112v88H0Z"/></clipPath></defs></svg>